<mxfile host="app.diagrams.net" modified="2024-03-19T14:18:19.780Z" agent="Mozilla/5.0 (Macintosh; Intel Mac OS X 10_15_7) AppleWebKit/537.36 (KHTML, like Gecko) Chrome/122.0.0.0 Safari/537.36" etag="4e66oZ3P-IBmg81PwvRu" version="24.0.7" type="github">
  <diagram id="mp9gjU2vg2g6icWn_AVB" name="Page-2">
    <mxGraphModel dx="2927" dy="1072" grid="1" gridSize="10" guides="1" tooltips="1" connect="1" arrows="1" fold="1" page="1" pageScale="1" pageWidth="850" pageHeight="1100" math="0" shadow="0">
      <root>
        <mxCell id="0" />
        <mxCell id="1" parent="0" />
      </root>
    </mxGraphModel>
  </diagram>
</mxfile>
